# xmcd
#
# Track frame offsets:
#	150
#	9414
#	22894
#	32567
#	44213
#	56986
#	70027
#	83613
#	94881
#	104158
#	117979
#
# Disc length: 1692 seconds
#
# Revision: 1
# Processed by: cddbd v1.5.2PL0 Copyright (c) Steve Scherf et al.
# Submitted via: audiograbber 1.83.01
#
DISCID=90069a0b
DTITLE=George Jones - We Can Make It
DYEAR=1972
DGENRE=Country
TTITLE0=We Can Make It
TTITLE1=I'll Take You To My World
TTITLE2=Kiss An Angel Good Morning
TTITLE3=All The Praises
TTITLE4=She's All I Got
TTITLE5=The Last Letter
TTITLE6=Loving You Could Never Be Better
TTITLE7=The King
TTITLE8=Try it, You'll Like it
TTITLE9=One Of These Days
TTITLE10=Let's Make History
EXTD=
EXTT0=
EXTT1=
EXTT2=
EXTT3=
EXTT4=
EXTT5=
EXTT6=
EXTT7=
EXTT8=
EXTT9=
EXTT10=
PLAYORDER=
